<svg width="292" height="297" xmlns="http://www.w3.org/2000/svg"><g fill-rule="nonzero" fill="none"><path fill="#E7EFF1" d="M234 40.067H0v200h234z"/><path d="M234 40.067H0V8.533C0 3.867 3.8 0 8.533 0h217c4.667 0 8.534 3.8 8.534 8.533v31.534H234z" fill="#4680C2"/><path d="M49.667 13.6c.2-.667 0-1.133-.934-1.133H45.6c-.8 0-1.133.4-1.4.866 0 0-1.6 3.934-3.867 6.467-.733.733-1.066 1-1.466 1-.2 0-.467-.267-.467-.933V13.6c0-.8-.267-1.133-.933-1.133h-4.934c-.467 0-.8.333-.8.733 0 .733 1.134.933 1.267 3.067v4.666c0 1-.2 1.2-.6 1.2-1.067 0-3.667-3.933-5.2-8.4-.334-.866-.6-1.2-1.4-1.2h-3.2c-.934 0-1.067.4-1.067.867 0 .8 1.067 5 5 10.467 2.6 3.733 6.267 5.8 9.6 5.8 2 0 2.267-.467 2.267-1.2V25.6c0-.933.2-1.067.8-1.067.467 0 1.267.267 3.133 2.067 2.134 2.133 2.534 3.133 3.667 3.133h3.133c.934 0 1.334-.466 1.067-1.333-.267-.867-1.333-2.2-2.667-3.667-.733-.866-1.8-1.8-2.2-2.266-.466-.6-.333-.867 0-1.4.067-.2 3.934-5.667 4.334-7.467z" fill="#FFF"/><path d="M162.333 187.067h-87.8c-1.133 0-2-.867-2-2v-2c0-1.134.867-2 2-2h87.8c1.134 0 2 .866 2 2v2c0 1.133-.866 2-2 2zM178.867 207.067H59.933a1.651 1.651 0 01-1.666-1.667v-2.667a1.65 1.65 0 011.666-1.666h118.934a1.65 1.65 0 011.666 1.666v2.667a1.65 1.65 0 01-1.666 1.667zM119.466 161.933c27.283 0 49.4-22.117 49.4-49.4 0-27.282-22.117-49.4-49.4-49.4-27.282 0-49.4 22.117-49.4 49.4 0 27.283 22.118 49.4 49.4 49.4z" fill="#214447"/><path d="M119.467 161.933c14.266 0 27.133-6.066 36.133-15.733-1.267-2.333-3.2-4.2-5.667-5.467l-19.866-10c7.266-3.733 12.333-11.2 12.333-19.933v-6.667c0-12.533-10.267-23.066-22.8-22.933-12.2.2-22.134 10.2-22.134 22.467v7.133c0 8.733 5.067 16.267 12.401 19.933l-19.6 10c-2.734 1.4-4.867 3.667-6.067 6.334 8.933 9.2 21.4 14.866 35.267 14.866z" fill="#FFF"/><path fill="#B6D3DA" d="M267.144 262.616l-33.8-33.799-10.371 10.37 33.8 33.8z"/><path d="M276.667 296.866a14.286 14.286 0 01-10.134-4.199L240.8 266.933c-5.6-5.6-5.6-14.666 0-20.266 5.6-5.6 14.667-5.6 20.267 0L286.8 272.4c5.6 5.6 5.6 14.667 0 20.267a14.285 14.285 0 01-10.133 4.199z" fill="#E01524"/><path d="M180.733 261.267c41.201 0 74.6-33.4 74.6-74.6 0-41.201-33.399-74.6-74.6-74.6-41.2 0-74.6 33.399-74.6 74.6 0 41.2 33.4 74.6 74.6 74.6z" fill="#B6D3DA" opacity=".4"/><path d="M180.733 126.733c33 0 59.867 26.867 59.867 59.867s-26.867 59.867-59.867 59.867-59.866-26.867-59.866-59.867 26.866-59.867 59.866-59.867zm0-14.666c-41.2 0-74.6 33.4-74.6 74.6 0 41.2 33.4 74.6 74.6 74.6 41.2 0 74.6-33.4 74.6-74.6 0-41.2-33.4-74.6-74.6-74.6z" fill="#B6D3DA"/><path d="M129.733 215.067c2.534 4.6 5.667 8.8 9.334 12.466l82.599-82.6A58.564 58.564 0 00209.2 135.6l-79.467 79.467zM151.534 237.267l79.799-79.8c-1.266-2.2-2.666-4.267-4.133-6.267l-81.867 81.867c1.934 1.533 4.067 2.933 6.201 4.2z" fill="#FFF"/><path fill="#FFB6AF" d="M253.333 61.2l5.734-5.533 5.267 12.266 4.2-1.866L263.4 53.8l8.6-.467-18.8-18.266z"/><path fill="#B6D3DA" d="M273.333 179.333l5.734-5.533 5.267 12.267 4.2-1.867-5.134-12.267 8.6-.466-18.8-18.267z"/><path fill="#E7EFF1" d="M78.133 277.2l5.734-5.533 5.266 12.266 4.2-1.866L88.2 269.8l8.6-.467L78 251.067z"/></g></svg>